<svg viewBox="0 0 200 200" xmlns="http://www.w3.org/2000/svg">
  <!-- Círculo externo decorativo -->
  <circle cx="100" cy="100" r="95" fill="none" stroke="currentColor" stroke-width="2" opacity="0.3"/>
  
  <!-- Tronco da árvore -->
  <path d="M100 160 Q85 140 90 120 Q95 100 100 80 Q105 100 110 120 Q115 140 100 160" 
        fill="currentColor" opacity="0.8"/>
  
  <!-- Copa da árvore -->
  <circle cx="100" cy="75" r="35" fill="currentColor" opacity="0.6"/>
  
  <!-- Folhas detalhadas -->
  <g opacity="0.7">
    <!-- Folhas superiores -->
    <ellipse cx="85" cy="65" rx="8" ry="4" fill="currentColor" transform="rotate(-30 85 65)"/>
    <ellipse cx="115" cy="65" rx="8" ry="4" fill="currentColor" transform="rotate(30 115 65)"/>
    <ellipse cx="100" cy="55" rx="6" ry="3" fill="currentColor"/>
    
    <!-- Folhas laterais -->
    <ellipse cx="70" cy="80" rx="10" ry="5" fill="currentColor" transform="rotate(-45 70 80)"/>
    <ellipse cx="130" cy="80" rx="10" ry="5" fill="currentColor" transform="rotate(45 130 80)"/>
    
    <!-- Folhas inferiores -->
    <ellipse cx="80" cy="95" rx="7" ry="4" fill="currentColor" transform="rotate(-60 80 95)"/>
    <ellipse cx="120" cy="95" rx="7" ry="4" fill="currentColor" transform="rotate(60 120 95)"/>
  </g>
  
  <!-- Raízes -->
  <g opacity="0.6">
    <path d="M95 160 Q80 170 70 180" fill="none" stroke="currentColor" stroke-width="2"/>
    <path d="M105 160 Q120 170 130 180" fill="none" stroke="currentColor" stroke-width="2"/>
    <path d="M100 165 Q100 175 100 185" fill="none" stroke="currentColor" stroke-width="2"/>
  </g>
  
  <!-- Símbolo Yin-Yang nas raízes -->
  <g transform="translate(100, 175)">
    <circle r="12" fill="currentColor"/>
    <path d="M 0,-12 A 6,6 0 0,1 0,0 A 6,6 0 0,1 0,12 A 12,12 0 0,1 0,-12" fill="white"/>
    <circle cy="-6" r="2" fill="white"/>
    <circle cy="6" r="2" fill="currentColor"/>
  </g>
</svg>