<svg width="200" height="200" viewBox="0 0 200 200" xmlns="http://www.w3.org/2000/svg">
  <!-- Background circle -->
  <circle cx="100" cy="100" r="100" fill="#f8fafc"/>
  
  <!-- Professional avatar illustration -->
  <circle cx="100" cy="80" r="35" fill="#64748b"/>
  <path d="M 100 115 Q 70 115 50 140 Q 50 150 50 160 L 150 160 Q 150 150 150 140 Q 130 115 100 115 Z" fill="#64748b"/>
  
  <!-- Suit/professional attire -->
  <rect x="85" y="110" width="30" height="50" fill="#1e293b" rx="5"/>
  <rect x="88" y="113" width="24" height="44" fill="#3b82f6" rx="3"/>
  
  <!-- Face details -->
  <circle cx="90" cy="75" r="3" fill="#1e293b"/>
  <circle cx="110" cy="75" r="3" fill="#1e293b"/>
  <path d="M 95 85 Q 100 90 105 85" stroke="#1e293b" stroke-width="2" fill="none"/>
  
  <!-- Professional touch - glasses -->
  <circle cx="90" cy="75" r="8" fill="none" stroke="#1e293b" stroke-width="2"/>
  <circle cx="110" cy="75" r="8" fill="none" stroke="#1e293b" stroke-width="2"/>
  <line x1="98" y1="75" x2="102" y2="75" stroke="#1e293b" stroke-width="2"/>
</svg>